<?xml version="1.0" encoding="UTF-8" standalone="no"?>
<!-- Created with Inkscape (http://www.inkscape.org/) -->

<svg
   version="1.1"
   id="svg66553"
   xml:space="preserve"
   width="1365.3333"
   height="1365.3333"
   viewBox="0 0 1365.3333 1365.3333"
   sodipodi:docname="texte_arial.svg"
   inkscape:version="1.1.2 (b8e25be833, 2022-02-05)"
   inkscape:export-filename=""
   inkscape:export-xdpi="305.38062"
   inkscape:export-ydpi="305.38062"
   xmlns:inkscape="http://www.inkscape.org/namespaces/inkscape"
   xmlns:sodipodi="http://sodipodi.sourceforge.net/DTD/sodipodi-0.dtd"
   xmlns="http://www.w3.org/2000/svg"
   xmlns:svg="http://www.w3.org/2000/svg"><defs
     id="defs66557"><clipPath
       clipPathUnits="userSpaceOnUse"
       id="clipPath66575"><path
         d="M 0,1024 H 1024 V 0 H 0 Z"
         id="path66573" /></clipPath><clipPath
       clipPathUnits="userSpaceOnUse"
       id="clipPath66591"><path
         d="M 0,1024 H 1024 V 0 H 0 Z"
         id="path66589" /></clipPath><clipPath
       clipPathUnits="userSpaceOnUse"
       id="clipPath66607"><path
         d="M 0,1024 H 1024 V 0 H 0 Z"
         id="path66605" /></clipPath><clipPath
       clipPathUnits="userSpaceOnUse"
       id="clipPath66623"><path
         d="M 0,1024 H 1024 V 0 H 0 Z"
         id="path66621" /></clipPath><clipPath
       clipPathUnits="userSpaceOnUse"
       id="clipPath66639"><path
         d="M 0,1024 H 1024 V 0 H 0 Z"
         id="path66637" /></clipPath><clipPath
       clipPathUnits="userSpaceOnUse"
       id="clipPath66655"><path
         d="M 0,1024 H 1024 V 0 H 0 Z"
         id="path66653" /></clipPath><clipPath
       clipPathUnits="userSpaceOnUse"
       id="clipPath66671"><path
         d="M 0,1024 H 1024 V 0 H 0 Z"
         id="path66669" /></clipPath><clipPath
       clipPathUnits="userSpaceOnUse"
       id="clipPath66687"><path
         d="M 0,1024 H 1024 V 0 H 0 Z"
         id="path66685" /></clipPath><clipPath
       clipPathUnits="userSpaceOnUse"
       id="clipPath66703"><path
         d="M 0,1024 H 1024 V 0 H 0 Z"
         id="path66701" /></clipPath><clipPath
       clipPathUnits="userSpaceOnUse"
       id="clipPath66719"><path
         d="M 0,1024 H 1024 V 0 H 0 Z"
         id="path66717" /></clipPath><clipPath
       clipPathUnits="userSpaceOnUse"
       id="clipPath66735"><path
         d="M 0,1024 H 1024 V 0 H 0 Z"
         id="path66733" /></clipPath><clipPath
       clipPathUnits="userSpaceOnUse"
       id="clipPath66751"><path
         d="M 0,1024 H 1024 V 0 H 0 Z"
         id="path66749" /></clipPath><clipPath
       clipPathUnits="userSpaceOnUse"
       id="clipPath66767"><path
         d="M 0,1024 H 1024 V 0 H 0 Z"
         id="path66765" /></clipPath><clipPath
       clipPathUnits="userSpaceOnUse"
       id="clipPath66791"><path
         d="M 0,1024 H 1024 V 0 H 0 Z"
         id="path66789" /></clipPath><clipPath
       clipPathUnits="userSpaceOnUse"
       id="clipPath66807"><path
         d="M 0,1024 H 1024 V 0 H 0 Z"
         id="path66805" /></clipPath><clipPath
       clipPathUnits="userSpaceOnUse"
       id="clipPath66831"><path
         d="M 0,1024 H 1024 V 0 H 0 Z"
         id="path66829" /></clipPath></defs><sodipodi:namedview
     id="namedview66555"
     pagecolor="#505050"
     bordercolor="#ffffff"
     borderopacity="1"
     inkscape:pageshadow="0"
     inkscape:pageopacity="0"
     inkscape:pagecheckerboard="1"
     showgrid="false"
     inkscape:zoom="0.60864261"
     inkscape:cx="736.06414"
     inkscape:cy="699.91813"
     inkscape:window-width="1920"
     inkscape:window-height="1017"
     inkscape:window-x="-8"
     inkscape:window-y="-8"
     inkscape:window-maximized="1"
     inkscape:current-layer="g66559" /><g
     id="g66559"
     inkscape:groupmode="layer"
     inkscape:label="texte_arial"
     transform="matrix(1.3333333,0,0,-1.3333333,0,1365.3333)"><text
       transform="matrix(1,0,0,-0.89686099,136.9268,537.916)"
       style="font-style:italic;font-variant:normal;font-weight:bold;font-stretch:normal;font-size:113.819px;font-family:Arial;-inkscape-font-specification:Arial-BoldItalicMT;writing-mode:lr-tb;fill:#000000;fill-opacity:1;fill-rule:nonzero;stroke:none"
       id="text66563"><tspan
         x="0 82.17746 151.72099 227.6384"
         y="0"
         sodipodi:role="line"
         id="tspan66561">KFET</tspan></text><text
       transform="matrix(0.67244878,-0.74013602,-0.74014366,-0.67245515,163.2764,233.6895)"
       style="font-variant:normal;font-weight:normal;font-stretch:normal;font-size:78.6012px;font-family:Arial;-inkscape-font-specification:ArialMT;writing-mode:lr-tb;fill:#000000;fill-opacity:1;fill-rule:nonzero;stroke:none"
       id="text66567"><tspan
         x="0"
         y="0"
         id="tspan66565">D</tspan></text><g
       id="g66569"><g
         id="g66571"
         clip-path="url(#clipPath66575)"><g
           id="g66577"
           transform="translate(181.0068,214.1748)"><path
             d="m 0,0 c 2.288,-2.519 4.55,-4.533 6.788,-6.045 2.236,-1.511 4.438,-2.535 6.604,-3.074 2.166,-0.538 4.573,-0.658 7.224,-0.36 2.649,0.299 5.531,1.189 8.645,2.67 3.114,1.481 6.252,3.658 9.415,6.532 3.711,3.372 6.517,6.915 8.416,10.627 1.898,3.713 2.777,7.51 2.637,11.393 -0.092,2.993 -0.947,5.933 -2.565,8.818 -1.151,2.065 -3.198,4.717 -6.14,7.956 L 27.991,52.861 -13.653,15.026 Z m 28.083,42.886 7.949,-8.749 c 2.977,-3.276 4.852,-5.91 5.626,-7.905 1.063,-2.767 1.074,-5.928 0.035,-9.483 C 40.652,13.194 37.955,9.438 33.6,5.481 30.456,2.625 27.449,0.56 24.581,-0.716 21.712,-1.991 19.031,-2.569 16.537,-2.45 14.766,-2.365 12.916,-1.773 10.985,-0.676 9.054,0.422 6.841,2.344 4.346,5.09 l -8.077,8.89 z"
             style="fill:none;stroke:#000000;stroke-width:1;stroke-linecap:butt;stroke-linejoin:miter;stroke-miterlimit:10;stroke-dasharray:none;stroke-opacity:1"
             id="path66579" /></g></g></g><text
       transform="matrix(0.75685431,-0.65357479,-0.65358115,-0.75686194,204.7134,189.0439)"
       style="font-variant:normal;font-weight:normal;font-stretch:normal;font-size:78.6013px;font-family:Arial;-inkscape-font-specification:ArialMT;writing-mode:lr-tb;fill:#000000;fill-opacity:1;fill-rule:nonzero;stroke:none"
       id="text66583"><tspan
         x="0"
         y="0"
         id="tspan66581">e</tspan></text><g
       id="g66585"><g
         id="g66587"
         clip-path="url(#clipPath66591)"><g
           id="g66593"
           transform="translate(230.9429,175.3184)"><path
             d="m 0,0 c -2.225,0.164 -4.296,1.073 -6.213,2.729 -2.576,2.224 -3.948,4.981 -4.116,8.27 -0.169,3.289 1.114,6.712 3.847,10.268 L 16.523,1.4 c 0.555,0.604 0.966,1.06 1.234,1.37 4.398,5.092 6.502,10.172 6.312,15.238 -0.189,5.065 -2.346,9.379 -6.471,12.941 -4.261,3.679 -8.964,5.239 -14.111,4.681 -5.148,-0.559 -9.963,-3.433 -14.444,-8.622 -4.331,-5.017 -6.375,-10.055 -6.131,-15.116 0.243,-5.062 2.621,-9.54 7.133,-13.437 3.582,-3.094 7.279,-4.765 11.088,-5.012 3.81,-0.247 7.503,0.84 11.081,3.261 L 7.388,2.038 C 4.687,0.516 2.225,-0.164 0,0 Z m 5.805,29.419 c 3.025,0.194 5.737,-0.746 8.139,-2.819 2.653,-2.291 3.942,-5.163 3.868,-8.616 -0.036,-2.233 -1.058,-4.748 -3.066,-7.544 L -2.479,25.315 c 2.498,2.541 5.259,3.91 8.284,4.104 z"
             style="fill:none;stroke:#000000;stroke-width:1;stroke-linecap:butt;stroke-linejoin:miter;stroke-miterlimit:10;stroke-dasharray:none;stroke-opacity:1"
             id="path66595" /></g></g></g><text
       transform="matrix(0.81840101,-0.57463666,-0.57464175,-0.81840865,240.5801,158.4424)"
       style="font-variant:normal;font-weight:normal;font-stretch:normal;font-size:78.6013px;font-family:Arial;-inkscape-font-specification:ArialMT;writing-mode:lr-tb;fill:#000000;fill-opacity:1;fill-rule:nonzero;stroke:none"
       id="text66599"><tspan
         x="0"
         y="0"
         id="tspan66597">s</tspan></text><g
       id="g66601"><g
         id="g66603"
         clip-path="url(#clipPath66607)"><g
           id="g66609"
           transform="translate(248.2764,155.9463)"><path
             d="m 0,0 c 1.007,-3.396 3.679,-6.616 8.013,-9.66 2.618,-1.838 5.283,-3.028 7.995,-3.573 2.713,-0.545 5.203,-0.371 7.472,0.522 2.268,0.893 4.064,2.281 5.387,4.166 1.353,1.926 2.034,3.855 2.046,5.785 0.011,1.931 -0.535,3.791 -1.638,5.582 -1.104,1.79 -3.28,4.624 -6.529,8.5 -2.235,2.695 -3.562,4.345 -3.98,4.951 -0.705,1.089 -1.075,2.099 -1.109,3.03 -0.049,0.91 0.184,1.731 0.699,2.465 0.808,1.151 2.069,1.766 3.782,1.845 1.712,0.08 3.867,-0.792 6.464,-2.615 2.198,-1.544 3.561,-3.221 4.089,-5.029 0.528,-1.809 0.314,-3.66 -0.64,-5.553 l 6.057,-3.128 c 1.159,2.407 1.719,4.585 1.681,6.534 -0.038,1.949 -0.782,3.996 -2.231,6.14 -1.45,2.142 -3.483,4.134 -6.1,5.972 -1.739,1.22 -3.525,2.137 -5.359,2.753 -1.835,0.616 -3.419,0.908 -4.754,0.876 -1.762,-0.013 -3.427,-0.416 -4.997,-1.205 -1.57,-0.789 -2.877,-1.926 -3.921,-3.413 -1.147,-1.633 -1.781,-3.416 -1.902,-5.347 -0.121,-1.931 0.351,-3.842 1.416,-5.731 1.065,-1.889 3.304,-4.812 6.715,-8.77 2.533,-2.937 4.011,-4.928 4.434,-5.975 0.595,-1.512 0.444,-2.907 -0.453,-4.184 -1,-1.424 -2.499,-2.224 -4.498,-2.399 -1.999,-0.176 -4.297,0.649 -6.893,2.472 C 8.67,-3.181 7.084,-1.176 6.488,1.024 5.892,3.226 6.223,5.556 7.482,8.018 L 1.274,11.063 C -0.583,7.084 -1.008,3.396 0,0 Z"
             style="fill:none;stroke:#000000;stroke-width:1;stroke-linecap:butt;stroke-linejoin:miter;stroke-miterlimit:10;stroke-dasharray:none;stroke-opacity:1"
             id="path66611" /></g></g></g><text
       transform="matrix(0.8942816,-0.44748685,-0.44749067,-0.89429051,295.8447,122.0654)"
       style="font-variant:normal;font-weight:normal;font-stretch:normal;font-size:78.6014px;font-family:Arial;-inkscape-font-specification:ArialMT;writing-mode:lr-tb;fill:#000000;fill-opacity:1;fill-rule:nonzero;stroke:none"
       id="text66615"><tspan
         x="0"
         y="0"
         id="tspan66613">c</tspan></text><g
       id="g66617"><g
         id="g66619"
         clip-path="url(#clipPath66623)"><g
           id="g66625"
           transform="translate(324.4204,115.8779)"><path
             d="m 0,0 c -2.369,-0.675 -4.766,-0.405 -7.191,0.809 -3.02,1.511 -4.914,3.846 -5.679,7.004 -0.766,3.159 0.076,7.186 2.527,12.083 2.415,4.828 5.154,7.871 8.215,9.128 3.061,1.258 6.148,1.109 9.26,-0.449 2.059,-1.03 3.506,-2.526 4.341,-4.489 0.835,-1.963 0.925,-4.312 0.273,-7.046 l 6.469,-2.079 c 1.134,4.039 0.944,7.689 -0.571,10.951 -1.516,3.262 -4.252,5.883 -8.21,7.863 -3.136,1.569 -6.405,2.283 -9.809,2.14 -3.404,-0.142 -6.497,-1.362 -9.278,-3.661 -2.781,-2.3 -5.157,-5.417 -7.126,-9.353 -3.046,-6.087 -3.868,-11.518 -2.468,-16.296 1.4,-4.778 4.594,-8.415 9.582,-10.911 3.982,-1.992 7.932,-2.488 11.852,-1.488 3.918,1 7.258,3.428 10.017,7.283 L 6.524,5.318 C 4.543,2.447 2.369,0.674 0,0 Z"
             style="fill:none;stroke:#000000;stroke-width:1;stroke-linecap:butt;stroke-linejoin:miter;stroke-miterlimit:10;stroke-dasharray:none;stroke-opacity:1"
             id="path66627" /></g></g></g><text
       transform="matrix(0.92711389,-0.3747577,-0.37476151,-0.92712279,333.5908,103.5928)"
       style="font-variant:normal;font-weight:normal;font-stretch:normal;font-size:78.6015px;font-family:Arial;-inkscape-font-specification:ArialMT;writing-mode:lr-tb;fill:#000000;fill-opacity:1;fill-rule:nonzero;stroke:none"
       id="text66631"><tspan
         x="0"
         y="0"
         id="tspan66629">r</tspan></text><g
       id="g66633"><g
         id="g66635"
         clip-path="url(#clipPath66639)"><g
           id="g66641"
           transform="translate(344.728,99.0908)"><path
             d="m 0,0 7.997,19.784 c 1.093,2.704 2.456,5.051 4.088,7.041 1.079,1.303 2.345,2.15 3.801,2.541 1.455,0.391 2.882,0.305 4.282,-0.262 1.566,-0.632 2.944,-1.728 4.136,-3.286 l 4.608,5.051 c -1.674,2.277 -3.59,3.852 -5.748,4.725 -1.495,0.603 -3.038,0.73 -4.628,0.38 -1.591,-0.351 -3.663,-1.569 -6.217,-3.655 L 14.635,38.048 8.87,40.378 -6.405,2.589 Z"
             style="fill:none;stroke:#000000;stroke-width:1;stroke-linecap:butt;stroke-linejoin:miter;stroke-miterlimit:10;stroke-dasharray:none;stroke-opacity:1"
             id="path66643" /></g></g></g><text
       transform="matrix(0.95569874,-0.29431354,-0.29431609,-0.95570892,360.4946,92.4492)"
       style="font-variant:normal;font-weight:normal;font-stretch:normal;font-size:78.6015px;font-family:Arial;-inkscape-font-specification:ArialMT;writing-mode:lr-tb;fill:#000000;fill-opacity:1;fill-rule:nonzero;stroke:none"
       id="text66647"><tspan
         x="0"
         y="0"
         id="tspan66645">o</tspan></text><g
       id="g66649"><g
         id="g66651"
         clip-path="url(#clipPath66655)"><g
           id="g66657"
           transform="translate(369.3765,94.4932)"><path
             d="m 0,0 c 2.285,-4.533 6.154,-7.639 11.607,-9.317 3.399,-1.047 6.78,-1.218 10.143,-0.514 3.363,0.705 6.238,2.262 8.627,4.673 2.389,2.409 4.355,6.121 5.899,11.134 1.905,6.186 1.698,11.558 -0.62,16.114 -2.319,4.555 -6.155,7.658 -11.51,9.306 C 19.328,32.881 14.8,32.695 10.562,30.842 5.482,28.604 1.832,23.878 -0.39,16.665 -2.416,10.087 -2.286,4.532 0,0 Z m 13.106,24.757 c 2.936,1.8 6.056,2.191 9.357,1.175 3.252,-1.001 5.59,-3.081 7.015,-6.237 1.423,-3.156 1.394,-7.142 -0.089,-11.96 C 27.814,2.624 25.555,-0.843 22.611,-2.667 19.666,-4.49 16.556,-4.898 13.279,-3.889 9.978,-2.872 7.622,-0.788 6.209,2.364 4.797,5.517 4.86,9.587 6.396,14.575 c 1.536,4.988 3.772,8.382 6.71,10.182 z"
             style="fill:none;stroke:#000000;stroke-width:1;stroke-linecap:butt;stroke-linejoin:miter;stroke-miterlimit:10;stroke-dasharray:none;stroke-opacity:1"
             id="path66659" /></g></g></g><text
       transform="matrix(0.981614,-0.19082444,-0.19082571,-0.98162418,405.8262,78.6943)"
       style="font-variant:normal;font-weight:normal;font-stretch:normal;font-size:78.6016px;font-family:Arial;-inkscape-font-specification:ArialMT;writing-mode:lr-tb;fill:#000000;fill-opacity:1;fill-rule:nonzero;stroke:none"
       id="text66663"><tspan
         x="0"
         y="0"
         id="tspan66661">q</tspan></text><g
       id="g66665"><g
         id="g66667"
         clip-path="url(#clipPath66671)"><g
           id="g66673"
           transform="translate(440.2183,56.0957)"><path
             d="M 0,0 10.758,55.344 4.655,56.53 3.615,51.181 c -2.028,4.72 -5.515,7.562 -10.463,8.524 -3.165,0.615 -6.232,0.358 -9.201,-0.772 -2.97,-1.13 -5.462,-3.156 -7.475,-6.074 -2.015,-2.919 -3.412,-6.387 -4.193,-10.406 -1.284,-6.605 -0.581,-12.139 2.11,-16.597 2.691,-4.459 6.41,-7.15 11.157,-8.073 2.135,-0.415 4.245,-0.316 6.332,0.294 2.087,0.611 3.802,1.555 5.145,2.832 L -6.782,1.318 Z m -15.455,51.936 c 2.533,2.1 5.269,2.866 8.207,2.294 2.964,-0.576 5.283,-2.421 6.959,-5.536 1.675,-3.115 1.995,-7.335 0.96,-12.659 -0.972,-4.998 -2.738,-8.518 -5.298,-10.562 -2.561,-2.044 -5.286,-2.785 -8.174,-2.223 -3.014,0.585 -5.351,2.375 -7.01,5.37 -1.66,2.994 -1.989,7.066 -0.988,12.215 1.03,5.299 2.811,8.999 5.344,11.101 z"
             style="fill:none;stroke:#000000;stroke-width:1;stroke-linecap:butt;stroke-linejoin:miter;stroke-miterlimit:10;stroke-dasharray:none;stroke-opacity:1"
             id="path66675" /></g></g></g><text
       transform="matrix(0.99629301,-0.08590668,-0.08590668,-0.99630319,452.3496,69.8516)"
       style="font-variant:normal;font-weight:normal;font-stretch:normal;font-size:78.6016px;font-family:Arial;-inkscape-font-specification:ArialMT;writing-mode:lr-tb;fill:#000000;fill-opacity:1;fill-rule:nonzero;stroke:none"
       id="text66679"><tspan
         x="0"
         y="0"
         id="tspan66677">u</tspan></text><g
       id="g66681"><g
         id="g66683"
         clip-path="url(#clipPath66687)"><g
           id="g66689"
           transform="translate(490.2812,66.5811)"><path
             d="M 0,0 3.501,40.608 -3.381,41.202 -5.257,19.444 C -5.556,15.978 -6.161,13.365 -7.069,11.607 -7.979,9.85 -9.384,8.52 -11.285,7.618 c -1.902,-0.902 -3.884,-1.264 -5.949,-1.086 -2.065,0.178 -3.754,0.844 -5.067,1.997 -1.313,1.154 -2.108,2.654 -2.385,4.501 -0.173,1.273 -0.104,3.707 0.206,7.302 l 1.942,22.522 -6.883,0.593 -2.169,-25.16 c -0.253,-2.933 -0.298,-5.086 -0.134,-6.461 0.234,-2.049 0.795,-3.811 1.682,-5.287 0.887,-1.477 2.33,-2.763 4.329,-3.859 1.998,-1.098 4.195,-1.749 6.591,-1.956 5.43,-0.468 9.923,1.456 13.48,5.772 L -6.156,0.53 Z"
             style="fill:none;stroke:#000000;stroke-width:1;stroke-linecap:butt;stroke-linejoin:miter;stroke-miterlimit:10;stroke-dasharray:none;stroke-opacity:1"
             id="path66691" /></g></g></g><text
       transform="matrix(0.99981956,0.01845255,0.01845255,-0.99982974,499.5513,65.9805)"
       style="font-variant:normal;font-weight:normal;font-stretch:normal;font-size:78.6016px;font-family:Arial;-inkscape-font-specification:ArialMT;writing-mode:lr-tb;fill:#000000;fill-opacity:1;fill-rule:nonzero;stroke:none"
       id="text66695"><tspan
         x="0"
         y="0"
         id="tspan66693">e</tspan></text><g
       id="g66697"><g
         id="g66699"
         clip-path="url(#clipPath66703)"><g
           id="g66705"
           transform="translate(528.2441,73.2656)"><path
             d="m 0,0 c -1.766,-1.363 -3.915,-2.068 -6.447,-2.114 -3.404,-0.064 -6.265,1.074 -8.585,3.411 -2.322,2.337 -3.651,5.741 -3.989,10.214 l 30.391,0.56 c 0.01,0.82 0.012,1.434 0.005,1.843 -0.125,6.728 -1.947,11.915 -5.47,15.561 -3.522,3.645 -8.008,5.418 -13.456,5.317 -5.629,-0.104 -10.172,-2.081 -13.633,-5.933 -3.46,-3.851 -5.127,-9.205 -5.001,-16.06 0.123,-6.626 1.964,-11.742 5.523,-15.349 3.56,-3.606 8.32,-5.354 14.281,-5.245 4.733,0.088 8.599,1.311 11.602,3.669 3.001,2.358 5.026,5.633 6.075,9.824 L 4.143,6.449 C 3.146,3.514 1.767,1.363 0,0 Z m -15.312,25.782 c 2.123,2.163 4.77,3.274 7.943,3.332 3.504,0.066 6.381,-1.213 8.63,-3.832 1.465,-1.688 2.382,-4.243 2.752,-7.665 l -22.755,-0.42 c 0.164,3.56 1.307,6.421 3.43,8.585 z"
             style="fill:none;stroke:#000000;stroke-width:1;stroke-linecap:butt;stroke-linejoin:miter;stroke-miterlimit:10;stroke-dasharray:none;stroke-opacity:1"
             id="path66707" /></g></g></g><text
       transform="matrix(0.99304663,0.11764654,0.11764781,-0.99305553,546.585,67.1172)"
       style="font-variant:normal;font-weight:normal;font-stretch:normal;font-size:78.6015px;font-family:Arial;-inkscape-font-specification:ArialMT;writing-mode:lr-tb;fill:#000000;fill-opacity:1;fill-rule:nonzero;stroke:none"
       id="text66711"><tspan
         x="0"
         y="0"
         id="tspan66709">s</tspan></text><g
       id="g66713"><g
         id="g66715"
         clip-path="url(#clipPath66719)"><g
           id="g66721"
           transform="translate(553.9844,70.3896)"><path
             d="m 0,0 c 3.016,-1.858 7.153,-2.476 12.413,-1.853 3.176,0.376 5.956,1.266 8.341,2.669 2.385,1.404 4.124,3.195 5.219,5.372 1.094,2.178 1.506,4.411 1.235,6.698 -0.276,2.338 -1.055,4.228 -2.334,5.675 -1.279,1.446 -2.927,2.468 -4.943,3.067 -2.016,0.598 -5.528,1.258 -10.534,1.978 -3.462,0.518 -5.551,0.863 -6.267,1.036 -1.252,0.341 -2.201,0.847 -2.847,1.518 -0.643,0.645 -1.017,1.412 -1.123,2.302 -0.166,1.396 0.362,2.696 1.586,3.898 1.224,1.201 3.41,1.989 6.562,2.362 2.668,0.316 4.8,-0.025 6.4,-1.02 1.6,-0.996 2.676,-2.517 3.228,-4.564 l 6.598,1.709 c -0.742,2.565 -1.776,4.562 -3.105,5.99 -1.328,1.427 -3.247,2.456 -5.757,3.086 -2.51,0.63 -5.353,0.757 -8.528,0.381 -2.11,-0.25 -4.052,-0.757 -5.83,-1.522 -1.778,-0.764 -3.153,-1.604 -4.127,-2.517 -1.302,-1.186 -2.276,-2.596 -2.919,-4.231 -0.644,-1.636 -0.859,-3.354 -0.645,-5.158 0.235,-1.982 0.951,-3.733 2.149,-5.253 1.198,-1.52 2.824,-2.629 4.877,-3.326 2.054,-0.697 5.671,-1.383 10.853,-2.057 3.846,-0.498 6.275,-0.996 7.288,-1.494 1.452,-0.73 2.27,-1.87 2.453,-3.42 C 20.448,9.598 19.864,8.002 18.491,6.539 17.119,5.075 14.857,4.156 11.707,3.783 8.582,3.413 6.062,3.849 4.151,5.091 2.238,6.333 0.932,8.291 0.228,10.965 L -6.43,9.094 C -5.158,4.89 -3.016,1.858 0,0 Z"
             style="fill:none;stroke:#000000;stroke-width:1;stroke-linecap:butt;stroke-linejoin:miter;stroke-miterlimit:10;stroke-dasharray:none;stroke-opacity:1"
             id="path66723" /></g></g></g><text
       transform="matrix(0.96318334,0.26880896,0.2688115,-0.96319351,612.2617,76.8242)"
       style="font-variant:normal;font-weight:normal;font-stretch:normal;font-size:78.6015px;font-family:Arial;-inkscape-font-specification:ArialMT;writing-mode:lr-tb;fill:#000000;fill-opacity:1;fill-rule:nonzero;stroke:none"
       id="text66727"><tspan
         x="0"
         y="0"
         id="tspan66725">o</tspan></text><g
       id="g66729"><g
         id="g66731"
         clip-path="url(#clipPath66735)"><g
           id="g66737"
           transform="translate(618.6309,83.3438)"><path
             d="m 0,0 c 4.372,-2.579 9.306,-3.102 14.802,-1.567 3.425,0.956 6.362,2.638 8.811,5.048 2.449,2.411 4.027,5.275 4.734,8.594 0.708,3.319 0.356,7.504 -1.054,12.556 -1.739,6.235 -4.816,10.642 -9.229,13.223 C 13.651,40.435 8.747,40.973 3.35,39.466 -1.506,38.111 -5.215,35.508 -7.779,31.658 -10.845,27.03 -11.362,21.081 -9.334,13.812 -7.483,7.182 -4.372,2.578 0,0 Z m -2.352,27.913 c 1.499,3.102 3.912,5.116 7.239,6.045 3.277,0.914 6.369,0.429 9.272,-1.457 2.903,-1.886 5.033,-5.256 6.389,-10.111 1.437,-5.151 1.41,-9.289 -0.082,-12.415 C 18.974,6.849 16.577,4.825 13.274,3.903 9.947,2.976 6.838,3.455 3.947,5.345 1.056,7.233 -1.092,10.692 -2.495,15.72 c -1.403,5.028 -1.356,9.092 0.143,12.193 z"
             style="fill:none;stroke:#000000;stroke-width:1;stroke-linecap:butt;stroke-linejoin:miter;stroke-miterlimit:10;stroke-dasharray:none;stroke-opacity:1"
             id="path66739" /></g></g></g><text
       transform="matrix(0.92904234,0.36995106,0.36995488,-0.92905124,657.835,89.7461)"
       style="font-variant:normal;font-weight:normal;font-stretch:normal;font-size:78.6015px;font-family:Arial;-inkscape-font-specification:ArialMT;writing-mode:lr-tb;fill:#000000;fill-opacity:1;fill-rule:nonzero;stroke:none"
       id="text66743"><tspan
         x="0"
         y="0"
         id="tspan66741">u</tspan></text><g
       id="g66745"><g
         id="g66747"
         clip-path="url(#clipPath66751)"><g
           id="g66753"
           transform="translate(693.2061,103.8311)"><path
             d="m 0,0 -15.079,37.867 -6.418,-2.555 8.079,-20.289 c 1.287,-3.233 1.918,-5.839 1.895,-7.818 -0.026,-1.978 -0.685,-3.798 -1.98,-5.456 -1.295,-1.658 -2.905,-2.871 -4.83,-3.638 -1.926,-0.766 -3.734,-0.928 -5.425,-0.487 -1.69,0.442 -3.074,1.427 -4.15,2.954 -0.726,1.06 -1.755,3.267 -3.09,6.618 l -8.363,21.002 -6.418,-2.555 9.342,-23.462 c 1.089,-2.735 2.015,-4.679 2.778,-5.834 1.128,-1.728 2.42,-3.052 3.875,-3.973 1.455,-0.922 3.32,-1.425 5.599,-1.509 2.278,-0.084 4.535,0.319 6.769,1.208 5.063,2.017 8.217,5.751 9.46,11.203 l 2.215,-5.562 z"
             style="fill:none;stroke:#000000;stroke-width:1;stroke-linecap:butt;stroke-linejoin:miter;stroke-miterlimit:10;stroke-dasharray:none;stroke-opacity:1"
             id="path66755" /></g></g></g><text
       transform="matrix(0.86919366,0.4944584,0.49446348,-0.8692013,722.1289,117.9795)"
       style="font-variant:normal;font-weight:normal;font-stretch:normal;font-size:78.6014px;font-family:Arial;-inkscape-font-specification:ArialMT;writing-mode:lr-tb;fill:#000000;fill-opacity:1;fill-rule:nonzero;stroke:none"
       id="text66759"><tspan
         x="0"
         y="0"
         id="tspan66757">r</tspan></text><g
       id="g66761"><g
         id="g66763"
         clip-path="url(#clipPath66767)"><g
           id="g66769"
           transform="translate(732.5703,123.9189)"><path
             d="m 0,0 -10.552,18.548 c -1.441,2.536 -2.436,5.06 -2.984,7.575 -0.353,1.654 -0.231,3.173 0.366,4.558 0.596,1.383 1.55,2.449 2.862,3.195 1.468,0.835 3.183,1.236 5.144,1.204 l -1.101,6.748 c -2.824,0.1 -5.249,-0.425 -7.272,-1.576 -1.401,-0.797 -2.458,-1.928 -3.17,-3.393 -0.712,-1.464 -1.043,-3.846 -0.992,-7.143 l -3.055,5.371 -5.404,-3.074 20.153,-35.428 z"
             style="fill:none;stroke:#000000;stroke-width:1;stroke-linecap:butt;stroke-linejoin:miter;stroke-miterlimit:10;stroke-dasharray:none;stroke-opacity:1"
             id="path66771" /></g></g></g><text
       transform="matrix(0.84184042,0.5397146,0.53971969,-0.84184806,746.3613,131.9512)"
       style="font-variant:normal;font-weight:normal;font-stretch:normal;font-size:78.6014px;font-family:Arial;-inkscape-font-specification:ArialMT;writing-mode:lr-tb;fill:#000000;fill-opacity:1;fill-rule:nonzero;stroke:none"
       id="text66775"><tspan
         x="0"
         y="0"
         id="tspan66773">i</tspan></text><g
       id="g66777"
       transform="translate(730.4922,179.1748)"><path
         d="M 0,0 -4.288,6.688 -10.104,2.96 -5.816,-3.729 Z M 26.079,-40.678 4.08,-6.365 -1.735,-10.094 20.264,-44.406 Z"
         style="fill:none;stroke:#000000;stroke-width:1;stroke-linecap:butt;stroke-linejoin:miter;stroke-miterlimit:10;stroke-dasharray:none;stroke-opacity:1"
         id="path66779" /></g><text
       transform="matrix(0.79967134,0.6004278,0.60043416,-0.79967897,763.417,142.4209)"
       style="font-variant:normal;font-weight:normal;font-stretch:normal;font-size:78.6013px;font-family:Arial;-inkscape-font-specification:ArialMT;writing-mode:lr-tb;fill:#000000;fill-opacity:1;fill-rule:nonzero;stroke:none"
       id="text66783"><tspan
         x="0"
         y="0"
         id="tspan66781">e</tspan></text><g
       id="g66785"><g
         id="g66787"
         clip-path="url(#clipPath66791)"><g
           id="g66793"
           transform="translate(782.4102,165.1289)"><path
             d="m 0,0 c -0.634,-2.14 -1.963,-3.97 -3.988,-5.49 -2.722,-2.044 -5.707,-2.798 -8.957,-2.262 -3.25,0.535 -6.322,2.517 -9.214,5.943 L 2.147,16.442 c -0.47,0.67 -0.829,1.169 -1.075,1.497 -4.04,5.381 -8.555,8.518 -13.545,9.411 -4.99,0.892 -9.664,-0.296 -14.022,-3.569 -4.501,-3.38 -7.026,-7.644 -7.576,-12.792 -0.55,-5.148 1.233,-10.465 5.35,-15.948 3.98,-5.3 8.468,-8.369 13.465,-9.208 4.998,-0.839 9.88,0.531 14.648,4.111 3.785,2.842 6.203,6.098 7.255,9.768 1.052,3.669 0.777,7.51 -0.827,11.52 L -0.419,7.652 C 0.493,4.689 0.633,2.139 0,0 Z m -27.509,11.933 c 0.453,2.996 1.948,5.447 4.487,7.352 2.802,2.105 5.882,2.753 9.24,1.946 2.175,-0.51 4.415,-2.044 6.719,-4.601 l -18.2,-13.665 c -1.951,2.981 -2.7,5.971 -2.246,8.968 z"
             style="fill:none;stroke:#000000;stroke-width:1;stroke-linecap:butt;stroke-linejoin:miter;stroke-miterlimit:10;stroke-dasharray:none;stroke-opacity:1"
             id="path66795" /></g></g></g><text
       transform="matrix(0.7320965,0.68119273,0.68119909,-0.73210413,801.1484,170.9912)"
       style="font-variant:normal;font-weight:normal;font-stretch:normal;font-size:78.6012px;font-family:Arial;-inkscape-font-specification:ArialMT;writing-mode:lr-tb;fill:#000000;fill-opacity:1;fill-rule:nonzero;stroke:none"
       id="text66799"><tspan
         x="0"
         y="0"
         id="tspan66797">n</tspan></text><g
       id="g66801"><g
         id="g66803"
         clip-path="url(#clipPath66807)"><g
           id="g66809"
           transform="translate(809.999,179.2266)"><path
             d="m 0,0 -15.163,16.297 c -3.556,3.821 -5.188,7.142 -4.897,9.966 0.292,2.822 1.515,5.236 3.669,7.241 1.349,1.255 2.808,2.043 4.376,2.367 1.569,0.323 3.025,0.158 4.369,-0.496 1.343,-0.655 2.973,-2.013 4.89,-4.073 L 14.133,13.15 19.19,17.856 2.118,36.204 c -2.178,2.341 -3.797,3.893 -4.855,4.655 -1.642,1.163 -3.325,1.921 -5.051,2.274 -1.726,0.351 -3.643,0.149 -5.752,-0.608 -2.109,-0.756 -4.063,-1.971 -5.861,-3.645 -4.14,-3.852 -5.781,-8.437 -4.922,-13.754 l -3.948,4.243 -4.551,-4.235 27.764,-29.84 z"
             style="fill:none;stroke:#000000;stroke-width:1;stroke-linecap:butt;stroke-linejoin:miter;stroke-miterlimit:10;stroke-dasharray:none;stroke-opacity:1"
             id="path66811" /></g></g></g><text
       transform="matrix(0.63643528,0.77132247,0.77133011,-0.63644164,850.6953,220.4355)"
       style="font-variant:normal;font-weight:normal;font-stretch:normal;font-size:78.6012px;font-family:Arial;-inkscape-font-specification:ArialMT;writing-mode:lr-tb;fill:#000000;fill-opacity:1;fill-rule:nonzero;stroke:none"
       id="text66815"><tspan
         x="0"
         y="0"
         id="tspan66813">!</tspan></text><g
       id="g66817"
       transform="translate(848.3955,239.5986)"><path
         d="m 0,0 -21.731,20.519 -9.622,7.938 -5.447,-6.601 9.621,-7.939 24.346,-17.351 z m 11.851,-7.588 -6.07,5.007 -5.055,-6.128 6.068,-5.007 z"
         style="fill:none;stroke:#000000;stroke-width:1;stroke-linecap:butt;stroke-linejoin:miter;stroke-miterlimit:10;stroke-dasharray:none;stroke-opacity:1"
         id="path66819" /></g><text
       transform="matrix(1,0,0,-0.89686099,570.4189,417.6982)"
       style="font-style:italic;font-variant:normal;font-weight:bold;font-stretch:normal;font-size:113.819px;font-family:Arial;-inkscape-font-specification:Arial-BoldItalicMT;writing-mode:lr-tb;fill:#000000;fill-opacity:1;fill-rule:nonzero;stroke:none"
       id="text66823"><tspan
         x="0 75.917404 145.46094 221.37834"
         y="0"
         sodipodi:role="line"
         id="tspan66821">ELEC</tspan></text></g></svg>
